<svg width="17" height="13" viewBox="0 0 17 13" fill="none" xmlns="http://www.w3.org/2000/svg">
<path d="M5.49999 10.4585L14.9164 1.0414L14.9164 1.04139C15.0712 0.886608 15.2811 0.799653 15.5 0.799653C15.7189 0.799653 15.9288 0.886608 16.0836 1.04139C16.2384 1.19617 16.3253 1.4061 16.3253 1.625C16.3253 1.8439 16.2384 2.05383 16.0836 2.20861L6.08367 12.2085L6.08359 12.2086L5.49999 10.4585ZM5.49999 10.4585L1.7086 6.6664L1.70859 6.66639C1.55381 6.51161 1.34388 6.42465 1.12498 6.42465C0.906085 6.42465 0.696155 6.51161 0.541373 6.66639C0.38659 6.82117 0.299634 7.0311 0.299634 7.25C0.299634 7.4689 0.38659 7.67883 0.541372 7.83361L4.91629 12.2085L4.91637 12.2086L5.49999 10.4585Z" fill="#1B873F" stroke="#1B873F" stroke-width="0.4"/>
</svg>
